<?xml version="1.0" encoding="UTF-8" standalone="no"?><svg xmlns="http://www.w3.org/2000/svg" xmlns:xlink="http://www.w3.org/1999/xlink" contentScriptType="application/ecmascript" contentStyleType="text/css" height="702px" preserveAspectRatio="none" style="width:385px;height:702px;" version="1.1" viewBox="0 0 385 702" width="385px" zoomAndPan="magnify"><defs><filter height="300%" id="f6xta77" width="300%" x="-1" y="-1"><feGaussianBlur result="blurOut" stdDeviation="2.0"/><feColorMatrix in="blurOut" result="blurOut2" type="matrix" values="0 0 0 0 0 0 0 0 0 0 0 0 0 0 0 0 0 0 .4 0"/><feOffset dx="4.0" dy="4.0" in="blurOut2" result="blurOut3"/><feBlend in="SourceGraphic" in2="blurOut3" mode="normal"/></filter></defs><g><rect fill="#FEFECE" filter="url(#f6xta77)" height="50" rx="12.5" ry="12.5" style="stroke: #A80036; stroke-width: 1.5;" width="65" x="236" y="8"/><line style="stroke: #A80036; stroke-width: 1.5;" x1="236" x2="301" y1="34.4883" y2="34.4883"/><text fill="#000000" font-family="sans-serif" font-size="14" lengthAdjust="spacingAndGlyphs" textLength="45" x="246" y="26.5352">Awake</text><rect fill="#FEFECE" filter="url(#f6xta77)" height="50" rx="12.5" ry="12.5" style="stroke: #A80036; stroke-width: 1.5;" width="75" x="133" y="135"/><line style="stroke: #A80036; stroke-width: 1.5;" x1="133" x2="208" y1="161.4883" y2="161.4883"/><text fill="#000000" font-family="sans-serif" font-size="14" lengthAdjust="spacingAndGlyphs" textLength="55" x="143" y="153.5352">Dressed</text><rect fill="#FEFECE" filter="url(#f6xta77)" height="50" rx="12.5" ry="12.5" style="stroke: #A80036; stroke-width: 1.5;" width="50" x="243.5" y="135"/><line style="stroke: #A80036; stroke-width: 1.5;" x1="243.5" x2="293.5" y1="161.4883" y2="161.4883"/><text fill="#000000" font-family="sans-serif" font-size="14" lengthAdjust="spacingAndGlyphs" textLength="25" x="256" y="153.5352">Fed</text><rect fill="#FEFECE" filter="url(#f6xta77)" height="50" rx="12.5" ry="12.5" style="stroke: #A80036; stroke-width: 1.5;" width="98" x="148.5" y="262"/><line style="stroke: #A80036; stroke-width: 1.5;" x1="148.5" x2="246.5" y1="288.4883" y2="288.4883"/><text fill="#000000" font-family="sans-serif" font-size="14" lengthAdjust="spacingAndGlyphs" textLength="78" x="158.5" y="280.5352">ReadyToGo</text><rect fill="#FEFECE" filter="url(#f6xta77)" height="50" rx="12.5" ry="12.5" style="stroke: #A80036; stroke-width: 1.5;" width="55" x="170" y="389"/><line style="stroke: #A80036; stroke-width: 1.5;" x1="170" x2="225" y1="415.4883" y2="415.4883"/><text fill="#000000" font-family="sans-serif" font-size="14" lengthAdjust="spacingAndGlyphs" textLength="35" x="180" y="407.5352">Work</text><rect fill="#FEFECE" filter="url(#f6xta77)" height="50" rx="12.5" ry="12.5" style="stroke: #A80036; stroke-width: 1.5;" width="51" x="6" y="389"/><line style="stroke: #A80036; stroke-width: 1.5;" x1="6" x2="57" y1="415.4883" y2="415.4883"/><text fill="#000000" font-family="sans-serif" font-size="14" lengthAdjust="spacingAndGlyphs" textLength="31" x="16" y="407.5352">Cafe</text><rect fill="#FEFECE" filter="url(#f6xta77)" height="50" rx="12.5" ry="12.5" style="stroke: #A80036; stroke-width: 1.5;" width="60" x="167.5" y="516"/><line style="stroke: #A80036; stroke-width: 1.5;" x1="167.5" x2="227.5" y1="542.4883" y2="542.4883"/><text fill="#000000" font-family="sans-serif" font-size="14" lengthAdjust="spacingAndGlyphs" textLength="40" x="177.5" y="534.5352">Home</text><rect fill="#FEFECE" filter="url(#f6xta77)" height="50" rx="12.5" ry="12.5" style="stroke: #A80036; stroke-width: 1.5;" width="66" x="234.5" y="643"/><line style="stroke: #A80036; stroke-width: 1.5;" x1="234.5" x2="300.5" y1="669.4883" y2="669.4883"/><text fill="#000000" font-family="sans-serif" font-size="14" lengthAdjust="spacingAndGlyphs" textLength="46" x="244.5" y="661.5352">Asleep</text><path d="M299.2472,62.1806 C321.0675,86.1387 346.5,122.1759 346.5,160 C346.5,160 346.5,160 346.5,541 C346.5,580.9881 317.9117,618.824 295.1304,642.6262 " fill="none" style="stroke: #A80036; stroke-width: 1.0;"/><polygon fill="#A80036" points="295.7806,58.4407,298.9652,67.7605,299.1796,62.1077,304.8324,62.3221,295.7806,58.4407" style="stroke: #A80036; stroke-width: 1.0;"/><text fill="#000000" font-family="sans-serif" font-size="13" lengthAdjust="spacingAndGlyphs" textLength="37" x="347.5" y="355.5684">Alarm</text><path d="M246.8191,58.1574 C239.0066,67.4211 230.2184,78.0755 222.5,88 C211.8693,101.6692 200.5584,117.2016 191.21,130.3319 " fill="none" style="stroke: #A80036; stroke-width: 1.0;"/><polygon fill="#A80036" points="188.1187,134.6866,196.5901,129.6632,191.013,130.6095,190.0667,125.0323,188.1187,134.6866" style="stroke: #A80036; stroke-width: 1.0;"/><text fill="#000000" font-family="sans-serif" font-size="13" lengthAdjust="spacingAndGlyphs" textLength="36" x="223.5" y="101.5684">Dress</text><path d="M268.5,58.0911 C268.5,78.7035 268.5,107.9647 268.5,129.8484 " fill="none" style="stroke: #A80036; stroke-width: 1.0;"/><polygon fill="#A80036" points="268.5,134.961,272.5,125.961,268.5,129.961,264.5,125.961,268.5,134.961" style="stroke: #A80036; stroke-width: 1.0;"/><text fill="#000000" font-family="sans-serif" font-size="13" lengthAdjust="spacingAndGlyphs" textLength="19" x="269.5" y="101.5684">Eat</text><path d="M175.8343,185.0911 C180.2165,205.7035 186.4374,234.9647 191.0898,256.8484 " fill="none" style="stroke: #A80036; stroke-width: 1.0;"/><polygon fill="#A80036" points="192.1768,261.961,194.2176,252.3259,191.137,257.0703,186.3925,253.9897,192.1768,261.961" style="stroke: #A80036; stroke-width: 1.0;"/><text fill="#000000" font-family="sans-serif" font-size="13" lengthAdjust="spacingAndGlyphs" textLength="19" x="187.5" y="228.5684">Eat</text><path d="M254.4727,185.0911 C242.852,205.8774 226.3142,235.4592 214.0476,257.4008 " fill="none" style="stroke: #A80036; stroke-width: 1.0;"/><polygon fill="#A80036" points="211.4982,261.961,219.3815,256.0574,213.9382,257.5968,212.3988,252.1534,211.4982,261.961" style="stroke: #A80036; stroke-width: 1.0;"/><text fill="#000000" font-family="sans-serif" font-size="13" lengthAdjust="spacingAndGlyphs" textLength="36" x="238.5" y="228.5684">Dress</text><path d="M197.5,312.0911 C197.5,332.7035 197.5,361.9647 197.5,383.8484 " fill="none" style="stroke: #A80036; stroke-width: 1.0;"/><polygon fill="#A80036" points="197.5,388.961,201.5,379.961,197.5,383.961,193.5,379.961,197.5,388.961" style="stroke: #A80036; stroke-width: 1.0;"/><text fill="#000000" font-family="sans-serif" font-size="13" lengthAdjust="spacingAndGlyphs" textLength="65" x="198.5" y="355.5684">GoToWork</text><path d="M225.132,403.2946 C242.9,400.5018 260,404.0703 260,414 C260,422.9988 245.9559,426.7732 230.0981,425.3232 " fill="none" style="stroke: #A80036; stroke-width: 1.0;"/><polygon fill="#A80036" points="225.132,424.7054,233.5693,429.7859,230.0937,425.3227,234.557,421.8471,225.132,424.7054" style="stroke: #A80036; stroke-width: 1.0;"/><text fill="#000000" font-family="sans-serif" font-size="13" lengthAdjust="spacingAndGlyphs" textLength="36" x="266" y="419.0684">Think</text><path d="M61.9013,425.4856 C72.5275,428.9455 84.6411,432.2793 96,434 C111.3801,436.3298 115.6101,436.2642 131,434 C144.0011,432.0873 157.9867,428.1776 169.7615,424.3182 " fill="none" style="stroke: #A80036; stroke-width: 1.0;"/><polygon fill="#A80036" points="57.1317,423.8924,64.4006,430.538,61.8741,425.4767,66.9354,422.9502,57.1317,423.8924" style="stroke: #A80036; stroke-width: 1.0;"/><text fill="#000000" font-family="sans-serif" font-size="13" lengthAdjust="spacingAndGlyphs" textLength="33" x="97" y="430.5684">Yawn</text><path d="M57.0737,414 C85.9604,414 133.0495,414 164.6399,414 " fill="none" style="stroke: #A80036; stroke-width: 1.0;"/><polygon fill="#A80036" points="169.9604,414,160.9604,410,164.9604,414,160.9604,418,169.9604,414" style="stroke: #A80036; stroke-width: 1.0;"/><text fill="#000000" font-family="sans-serif" font-size="13" lengthAdjust="spacingAndGlyphs" textLength="76" x="75.5" y="407.5684">DrinkCoffee</text><path d="M197.5,439.0911 C197.5,459.7035 197.5,488.9647 197.5,510.8484 " fill="none" style="stroke: #A80036; stroke-width: 1.0;"/><polygon fill="#A80036" points="197.5,515.961,201.5,506.961,197.5,510.961,193.5,506.961,197.5,515.961" style="stroke: #A80036; stroke-width: 1.0;"/><text fill="#000000" font-family="sans-serif" font-size="13" lengthAdjust="spacingAndGlyphs" textLength="54" x="198.5" y="482.5684">GoHome</text><path d="M189.5627,566.2701 C186.5003,580.6935 185.2503,598.6935 192.5,613 C200.5034,628.7939 215.4113,641.1487 229.8402,650.1127 " fill="none" style="stroke: #A80036; stroke-width: 1.0;"/><polygon fill="#A80036" points="234.2946,652.7859,228.6361,644.7248,230.0075,650.2129,224.5193,651.5842,234.2946,652.7859" style="stroke: #A80036; stroke-width: 1.0;"/><text fill="#000000" font-family="sans-serif" font-size="13" lengthAdjust="spacingAndGlyphs" textLength="30" x="193.5" y="609.5684">Read</text><path d="M211.7872,566.1403 C217.0729,575.4955 223.0926,586.2146 228.5,596 C236.1547,609.8521 244.5272,625.2727 251.5457,638.278 " fill="none" style="stroke: #A80036; stroke-width: 1.0;"/><polygon fill="#A80036" points="254.0663,642.9527,253.3155,633.1325,251.6932,638.5518,246.2739,636.9295,254.0663,642.9527" style="stroke: #A80036; stroke-width: 1.0;"/><text fill="#000000" font-family="sans-serif" font-size="13" lengthAdjust="spacingAndGlyphs" textLength="54" x="238.5" y="609.5684">WatchTV</text></g></svg>